# xmcd
#
# Track frame offsets: 
#        150
#        14200
#        34607
#        78477
#
# Disc length: 2438 seconds
#
# Revision: 2
# Processed by: cddbd v1.5.2PL0 Copyright (c) Steve Scherf et al.
# Submitted via: ExactAudioCopyFreeDBPlugin 1.0
#
DISCID=2a098404
DTITLE=Reggie Lucas - Survival Themes
DYEAR=1976
DGENRE=Fusion
TTITLE0=Slewfoot
TTITLE1=Tender Years
TTITLE2=The Barefoot Song
TTITLE3=Survival Themes
EXTD=
EXTT0=
EXTT1=
EXTT2=
EXTT3=
PLAYORDER=
